<?xml version="1.0" encoding="UTF-8"?>
<svg width="40px" height="40px" viewBox="0 0 40 40" version="1.1" xmlns="http://www.w3.org/2000/svg" xmlns:xlink="http://www.w3.org/1999/xlink">
    <!-- Generator: Sketch 48.2 (47327) - http://www.bohemiancoding.com/sketch -->
    <title>Combined Shape</title>
    <desc>Created with Sketch.</desc>
    <defs></defs>
    <g id="Page-1" stroke="none" stroke-width="1" fill="none" fill-rule="evenodd">
        <path d="M20,40 C8.954305,40 0,31.045695 0,20 C0,8.954305 8.954305,0 20,0 C31.045695,0 40,8.954305 40,20 C40,31.045695 31.045695,40 20,40 Z M10.158,19.62 C10.158,25.22 13.154,30.624 19.846,30.624 C21.806,30.624 23.43,30.176 24.774,29.392 L27.238,31.856 L29.422,29.728 L27.014,27.572 C28.75,25.5 29.562,22.616 29.562,19.62 C29.562,13.908 26.566,8.616 19.846,8.616 C13.154,8.616 10.158,13.88 10.158,19.62 Z M20.714,25.36 L22.59,27.236 C21.806,27.628 20.882,27.824 19.846,27.824 C15.506,27.824 13.294,23.988 13.294,19.62 C13.294,15.196 15.506,11.388 19.846,11.388 C24.186,11.388 26.426,15.224 26.426,19.62 C26.426,21.888 25.866,23.988 24.718,25.5 L22.618,23.596 L20.714,25.36 Z" id="Combined-Shape" fill="#F18D00"></path>
    </g>
</svg>